<?xml version="1.0" encoding="UTF-8" standalone="no"?>
<!-- Created with Inkscape (http://www.inkscape.org/) -->

<svg
   inkscape:version="1.1.1 (3bf5ae0d25, 2021-09-20)"
   sodipodi:docname="overlay_m55.svg"
   id="svg8"
   version="1.1"
   viewBox="0 0 147.13323 235.91566"
   height="891.64972"
   width="556.09412"
   inkscape:export-filename="C:\Users\matth\ironclaw.png"
   inkscape:export-xdpi="68.609283"
   inkscape:export-ydpi="68.609283"
   xmlns:inkscape="http://www.inkscape.org/namespaces/inkscape"
   xmlns:sodipodi="http://sodipodi.sourceforge.net/DTD/sodipodi-0.dtd"
   xmlns="http://www.w3.org/2000/svg"
   xmlns:svg="http://www.w3.org/2000/svg"
   xmlns:rdf="http://www.w3.org/1999/02/22-rdf-syntax-ns#"
   xmlns:cc="http://creativecommons.org/ns#"
   xmlns:dc="http://purl.org/dc/elements/1.1/">
  <defs
     id="defs2" />
  <sodipodi:namedview
     id="base"
     pagecolor="#ffffff"
     bordercolor="#666666"
     borderopacity="1.0"
     inkscape:pageopacity="0.0"
     inkscape:pageshadow="2"
     inkscape:zoom="1.2162237"
     inkscape:cx="-51.799683"
     inkscape:cy="409.46416"
     inkscape:document-units="mm"
     inkscape:current-layer="layer1"
     showgrid="false"
     inkscape:window-width="1920"
     inkscape:window-height="1011"
     inkscape:window-x="0"
     inkscape:window-y="0"
     inkscape:window-maximized="1"
     fit-margin-top="1"
     units="px"
     fit-margin-left="1"
     fit-margin-bottom="1"
     fit-margin-right="1"
     inkscape:pagecheckerboard="0"
     showguides="true"
     inkscape:guide-bbox="true"
     inkscape:snap-global="false">
    <sodipodi:guide
       position="74.298692,115.19951"
       orientation="1,0"
       id="guide60298" />
    <sodipodi:guide
       position="83.143774,125.62132"
       orientation="0,-1"
       id="guide67282" />
    <sodipodi:guide
       position="79.675841,123.20017"
       orientation="0,-1"
       id="guide4429" />
  </sodipodi:namedview>
  <metadata
     id="metadata5">
    <rdf:RDF>
      <cc:Work
         rdf:about="">
        <dc:format>image/svg+xml</dc:format>
        <dc:type
           rdf:resource="http://purl.org/dc/dcmitype/StillImage" />
      </cc:Work>
    </rdf:RDF>
  </metadata>
  <g
     inkscape:groupmode="layer"
     id="layer2"
     inkscape:label="M55"
     style="display:inline"
     transform="translate(-30.596969,-37.196607)">
    <g
       inkscape:groupmode="layer"
       id="layer1"
       inkscape:label="Body">
      <path
         id="rect10806"
         style="display:inline;fill:#4d4d4d;fill-opacity:1;stroke:#000000;stroke-width:0.262854;stroke-opacity:1"
         d="m 94.156667,43.995713 10.734723,-4.486668 10.79215,4.56093 0.55585,105.806205 c 0,0 -11.35064,5.59141 -11.3481,5.55471 l -10.892404,-5.49891 c 0,0 0.03021,-70.26556 0.157781,-105.936267 z"
         sodipodi:nodetypes="ccccccc"
         inkscape:export-filename="/home/tfk/Projects-External/ckb-next-tfk/src/gui/resources/overlay_m55.png"
         inkscape:export-xdpi="68.609283"
         inkscape:export-ydpi="68.609283" />
      <path
         id="rect21697-5"
         style="display:inline;fill:#4d4d4d;fill-opacity:1;stroke:#000000;stroke-width:0.265;stroke-miterlimit:4;stroke-dasharray:none"
         d="m 162.26588,189.56755 3.31681,12.18222 1.25735,6.04154 0.15845,7.2867 -0.11255,1.15235 -0.69488,-0.80918 -1.41617,-3.84088 -2.34512,-18.9923 z"
         sodipodi:nodetypes="ccccccccc"
         inkscape:export-filename="/home/tfk/Projects-External/ckb-next-tfk/src/gui/resources/overlay_m55.png"
         inkscape:export-xdpi="68.609283"
         inkscape:export-ydpi="68.609283" />
      <path
         id="rect21697-7"
         style="display:inline;fill:#4d4d4d;fill-opacity:1;stroke:#000000;stroke-width:0.265;stroke-miterlimit:4;stroke-dasharray:none"
         d="m 42.455184,205.16402 4.68982,-18.61313 -2.53816,25.16622 -1.64038,3.58104 -1.28042,0.7945 z"
         sodipodi:nodetypes="cccccc"
         inkscape:export-filename="/home/tfk/Projects-External/ckb-next-tfk/src/gui/resources/overlay_m55.png"
         inkscape:export-xdpi="68.609283"
         inkscape:export-ydpi="68.609283" />
      <path
         style="display:inline;fill:#666666;fill-opacity:1;stroke:#000000;stroke-width:0.265;stroke-linecap:butt;stroke-linejoin:miter;stroke-miterlimit:4;stroke-dasharray:none;stroke-opacity:1"
         d="m 70.996499,50.447017 19.30287,-8.972185 3.73676,1.834284 -0.09845,106.457784 10.939225,5.43841 11.17591,-5.32743 c 0,0 -0.13584,-84.684967 -0.34306,-107.014424 l 2.38644,-1.398419 33.78979,16.365701 6.25288,9.709732 0.58634,8.768084 1.35855,31.767076 -2.41627,3.1469 0.0388,11.20332 0.31244,21.77738 -0.14696,32.77211 4.39995,5.40332 0.0542,10.46573 2.29366,19.03818 1.4904,3.79664 0.70211,0.8197 -0.9358,7.37204 -2.82069,6.89558 -5.4968,9.30649 -5.14606,7.65493 -6.99408,8.54152 -5.24754,4.8231 -10.21281,6.27748 -10.15625,3.94212 -8.94388,1.6599 -7.02343,0.0741 -6.711281,-0.20418 -7.42834,-1.12431 -9.53197,-3.24852 -9.61096,-5.51396 -7.32181,-6.64107 -6.6935,-8.32124 -5.52161,-8.03727 -5.30947,-9.11134 -3.02191,-7.15548 -1.0229,-7.49685 1.06514,-0.70324 1.47693,-3.39241 2.1919,-18.95002 0.82566,-11.46425 4.14465,-3.7236 -0.10836,-34.00659 0.14034,-21.88093 0.61814,-10.44705 -3.26865,-3.40579 0.32272,-11.761889 0.89574,-20.346764 0.59948,-8.662954 5.81818,-9.30807 z"
         id="path4530-3"
         inkscape:connector-curvature="0"
         sodipodi:nodetypes="ccccccccccccccccccccccccccccccccccccccccccccccccccccccc"
         inkscape:export-filename="/home/tfk/Projects-External/ckb-next-tfk/src/gui/resources/overlay_m55.png"
         inkscape:export-xdpi="68.609283"
         inkscape:export-ydpi="68.609283" />
    </g>
    <g
       id="g59060"
       transform="translate(-214.74322,-0.61531008)"
       inkscape:label="Buttons">
      <path
         id="rect17027"
         style="fill:#808080;fill-opacity:1;stroke:#000000;stroke-width:0.265;stroke-miterlimit:4;stroke-dasharray:none;stroke-opacity:1"
         d="M 311.10271,63.392278 H 328.1082 V 95.625923 H 311.10271 Z"
         inkscape:label="Wheel" />
      <path
         id="rect21697-6"
         style="display:inline;fill:#808080;fill-opacity:1;stroke:#000000;stroke-width:0.265;stroke-miterlimit:4;stroke-dasharray:none"
         d="m 311.71359,120.73622 7.95715,-2.99963 7.5717,2.76889 0.0769,27.62579 -7.64861,3.23037 -8.03406,-3.23037 z"
         sodipodi:nodetypes="ccccccc"
         inkscape:label="DPI-Cycle" />
      <path
         id="rect21697-6-3"
         style="display:inline;fill:#808080;fill-opacity:1;stroke:#000000;stroke-width:0.265;stroke-miterlimit:4;stroke-dasharray:none"
         d="m 262.78465,110.18317 2.32738,-0.18474 1.78036,2.12945 -0.73502,28.32574 -2.54312,-0.043 -3.32781,3.33715 1.11602,-29.99066 z"
         sodipodi:nodetypes="cccccccc"
         inkscape:label="Foreward-Left" />
      <path
         id="rect21697-6-3-6"
         style="display:inline;fill:#808080;fill-opacity:1;stroke:#000000;stroke-width:0.265;stroke-miterlimit:4;stroke-dasharray:none"
         d="m 373.6044,110.14018 2.32738,0.12291 0.8574,3.36007 1.80922,26.87683 -0.77523,1.83348 -2.69695,-3.04265 -2.37299,-0.12396 -0.53102,-26.91411 z"
         sodipodi:nodetypes="ccccccccc"
         inkscape:label="Foreward-Right" />
      <path
         id="rect21697-6-3-5"
         style="display:inline;fill:#808080;fill-opacity:1;stroke:#000000;stroke-width:0.265;stroke-miterlimit:4;stroke-dasharray:none"
         d="m 260.36397,143.66849 3.27994,-3.32594 2.40886,0.005 0.18568,38.03062 -3.44516,3.05314 -2.36205,-0.93683 -0.68806,-2.79528 z"
         sodipodi:nodetypes="cccccccc"
         inkscape:label="Back-Left" />
      <path
         id="rect21697-6-3-5-2"
         style="display:inline;fill:#808080;fill-opacity:1;stroke:#000000;stroke-width:0.265;stroke-miterlimit:4;stroke-dasharray:none"
         d="m 372.75193,139.14571 2.43309,0.11269 2.73051,3.00962 0.90976,35.71082 -1.13774,2.97622 -2.20822,-0.0908 -2.91856,-3.33367 z"
         sodipodi:nodetypes="cccccccc"
         inkscape:label="Back-Right" />
    </g>
    <g
       inkscape:groupmode="layer"
       id="layer3"
       inkscape:label="Lights">
      <path
         id="rect21697"
         style="display:inline;fill:#808080;fill-opacity:1;stroke:#000000;stroke-width:0.283846"
         d="m 102.53166,100.614 h 4.76673 v 9.55272 h -4.76673 z"
         inkscape:label="rect21697" />
    </g>
  </g>
</svg>
